<svg width="799" height="210" viewBox="0 0 799 210" fill="none" xmlns="http://www.w3.org/2000/svg">
<path d="M767.24 149.66C764.8 157.63 755.71 162.29 742.85 162.29C727.78 162.29 719.58 155.42 717.59 140.79L798.04 140.35V131.71C798.04 95.58 776.32 72.75 741.52 72.75C706.72 72.75 684.78 96.91 684.78 131.48C684.78 132.4 684.8 133.31 684.84 134.22C680.18 127.9 672.36 124.06 661.76 121.73L641.15 117.3C633.39 115.52 629.18 112.65 629.18 107.55C629.18 101.56 634.06 97.57 641.81 97.57C650.01 97.57 654.67 102.67 654.67 110.2H687.02C687.02 87.82 669.07 72.75 643.36 72.75C617.65 72.75 597.04 86.04 597.04 109.1C597.04 128.61 607.01 137.47 627.41 141.9L647.8 146.34C656 148.11 657.77 151.66 657.77 154.98C657.77 160.74 652.9 164.51 642.26 164.51C631.62 164.51 626.07 159.85 625.63 152.1H593.82V118.63C593.82 89.6 578.53 72.75 552.15 72.75C537.74 72.75 525.11 78.29 518.23 87.82L516.02 76.29H483.88V121.84C480.23 91.47 459.45 72.75 427.93 72.75C398.65 72.75 377.17 91.25 372.26 119.04C366.64 104.73 353.46 96.17 332.2 91.82L307.59 86.72C296.06 84.28 290.96 79.41 290.96 69.43C290.96 58.56 300.27 51.92 314.9 51.92C328.42 51.92 337.06 59.01 337.06 70.54H372.75C372.75 39.51 350.59 20 315.35 20C280.11 20 255.06 41.06 255.06 70.76C255.06 97.58 270.13 114.2 299.38 120.19L324.43 125.29C335.3 127.51 339.51 132.16 339.51 141.25C339.51 151.67 329.31 158.1 313.13 158.1C296.95 158.1 288.3 151.45 288.3 139.48H252.61C252.61 170.29 276.33 190.02 312.9 190.02C345.19 190.02 368.04 174.88 373.92 150.61C381.09 174.39 401.79 190.02 428.59 190.02C456.96 190.02 477.98 176.29 483.87 154.42V187.14H518.01V126.41C518.01 112.67 526.65 103.8 540.17 103.8C551.92 103.8 559.68 112.89 559.68 126.85V187.14H593.81V158.63C597.05 177.46 614.59 190.03 640.91 190.03C667.23 190.03 687.18 177.47 689.63 156.5C698.25 176.94 717.66 190.03 742.18 190.03C772.55 190.03 794.49 174.29 798.47 149.69H767.22L767.24 149.66ZM741.75 100.45C755.5 100.45 764.13 107.98 764.13 119.73H718.03C720.69 106.44 728.23 100.45 741.74 100.45H741.75ZM428.16 100.45C441.9 100.45 450.54 107.98 450.54 119.73H404.44C407.1 106.44 414.64 100.45 428.16 100.45ZM483.88 149.66H453.65C451.21 157.63 442.12 162.29 429.27 162.29C414.2 162.29 406 155.42 404 140.79L483.88 140.35V149.66Z" fill="#6941C6"/>
<path d="M105 210C162.99 210 210 162.99 210 105C210 47.0101 162.99 0 105 0C47.0101 0 0 47.0101 0 105C0 162.99 47.0101 210 105 210Z" fill="#6941C6"/>
<path d="M120 128.93L126.04 135.4C124.86 136.21 123.64 136.92 122.37 137.57C117.17 140.26 111.3 141.76 105.05 141.76C98.32 141.76 92 140.01 86.53 136.94C84.94 136.07 83.44 135.06 82.01 133.96C80.96 133.17 79.95 132.31 79 131.39L84.92 125.03L97.79 111.22L100.64 108.16L104.46 104.06L100.66 99.9602L98.25 97.3902L92.21 90.9202L84.72 82.8902L78.8 76.5302C79.61 75.7402 80.45 74.9902 81.33 74.3002C82.88 73.0402 84.53 71.9002 86.28 70.9302C87.14 70.4102 88.01 69.9602 88.92 69.5402C93.81 67.2402 99.28 65.9502 105.06 65.9502C108.3 65.9502 111.42 66.3502 114.42 67.1202C117.54 67.9102 120.49 69.0802 123.24 70.6002C124.31 71.1702 125.33 71.8002 126.32 72.4802L120.3 78.9402C119.26 78.3102 118.18 77.7302 117.06 77.2402C114.07 75.8602 110.78 75.0102 107.33 74.7502C106.59 74.6902 105.82 74.6502 105.06 74.6502C101.61 74.6502 98.31 75.2502 95.25 76.3502C94.28 76.6702 93.34 77.0802 92.42 77.5102L98.57 84.1102L104.61 90.5802L107.02 93.1702L110.84 97.2502L113.54 100.16L117.18 104.08L113.15 108.4L110.84 110.88L107.02 114.99L104.17 118.03L92.71 130.32C96.46 132.08 100.64 133.06 105.06 133.06C108.98 133.06 112.72 132.28 116.13 130.88C117.49 130.33 118.78 129.68 120.01 128.94L120 128.93Z" fill="white"/>
<path d="M169.74 135.39C167.65 139.87 165.11 144.11 162.17 148.03C160.39 150.41 158.48 152.66 156.41 154.8C155.65 155.63 154.84 156.42 154.01 157.18C152.65 158.47 151.26 159.71 149.8 160.89C148.72 161.76 147.62 162.61 146.48 163.43C134.7 171.9 120.23 176.88 104.59 176.88C83.37 176.88 64.3 167.69 51.16 153.07C49.25 150.95 47.45 148.72 45.82 146.39L51.24 140.58L56.82 134.59L58.73 132.53L62.55 128.43L64.67 126.16C64.67 126.16 64.69 126.21 64.7 126.22C64.85 126.5 65.01 126.77 65.17 127.03C65.46 127.55 65.77 128.05 66.09 128.55C66.49 129.2 66.93 129.84 67.38 130.46C68.04 131.45 68.79 132.39 69.55 133.31C70.73 134.75 72.03 136.11 73.39 137.37C74.34 138.29 75.35 139.17 76.38 139.98C77.79 141.1 79.26 142.13 80.78 143.07H80.8C87.84 147.44 96.13 149.96 105.03 149.96C113.45 149.96 121.35 147.71 128.13 143.74C129.36 143.04 130.54 142.28 131.69 141.46C133.23 140.38 134.68 139.21 136.06 137.93C136.9 137.19 137.71 136.39 138.46 135.57C139.85 134.13 141.11 132.61 142.3 131.01C142.88 130.22 143.43 129.41 143.95 128.57C143.97 128.55 143.97 128.54 143.98 128.52L144.37 128.94L149.84 134.8C149.84 134.8 149.82 134.83 149.81 134.85C149.26 135.66 148.68 136.44 148.08 137.21C146.87 138.78 145.57 140.27 144.18 141.69C143.42 142.52 142.61 143.29 141.77 144.05C140.39 145.31 138.95 146.49 137.45 147.61C136.32 148.45 135.17 149.24 133.97 149.99C125.59 155.27 115.68 158.31 105.05 158.31C94.42 158.31 83.64 154.99 75.03 149.28H75.01C73.52 148.29 72.06 147.24 70.69 146.09C69.67 145.26 68.67 144.39 67.71 143.48C66.35 142.22 65.06 140.86 63.84 139.45L56.49 147.33C68.22 160.67 85.43 169.08 104.59 169.08C118.15 169.08 130.75 164.87 141.12 157.65C142.27 156.86 143.4 156.03 144.49 155.16C145.96 153.99 147.37 152.76 148.71 151.49C149.52 150.71 150.33 149.92 151.09 149.09C153.15 146.94 155.04 144.64 156.77 142.21C159.65 138.2 162.06 133.83 163.96 129.18L169.74 135.36V135.39Z" fill="white"/>
<path d="M176 96.8802L172.44 98.2602L168.49 99.7802L163.76 101.59L159.49 103.24L151.07 106.51C151.12 105.64 151.15 104.75 151.15 103.86C151.15 101.93 151.04 100.02 150.79 98.1602C149.84 90.2902 146.87 83.0402 142.47 76.9402C141.42 75.4702 140.28 74.0802 139.07 72.7502C138.18 71.7602 137.26 70.8402 136.27 69.9502C134.91 68.6702 133.47 67.5102 131.95 66.4102H131.93C130.97 65.7102 129.99 65.0502 128.97 64.4402C126.35 62.8402 123.55 61.4902 120.62 60.4402C115.75 58.6902 110.5 57.7402 105.03 57.7402C97.08 57.7402 89.59 59.7502 83.07 63.3102C82.2 63.7602 81.35 64.2602 80.53 64.8002C78.85 65.8502 77.23 67.0202 75.69 68.2802C74.83 68.9902 73.99 69.7402 73.18 70.5502C71.82 71.8102 70.54 73.1902 69.36 74.6502C68.45 75.7302 67.61 76.8702 66.82 78.0302C66.38 78.6802 65.95 79.3602 65.54 80.0402C65.3 80.4402 65.04 80.8702 64.81 81.2902C64.52 81.7902 64.24 82.3102 63.98 82.8302C63.92 82.9602 63.83 83.0902 63.79 83.2202C63.6 83.5802 63.43 83.9302 63.27 84.2902C63.12 84.5802 62.98 84.8702 62.87 85.1802C62.14 86.7802 61.53 88.4302 60.99 90.1302C60.8 90.7402 60.62 91.3802 60.46 92.0102L66.29 94.2602L68.2 94.9902C69.11 91.1502 70.63 87.5402 72.62 84.2602L78.85 90.9502C77.73 93.2002 76.89 95.6301 76.41 98.1702C76.02 100.02 75.83 101.94 75.83 103.9C75.83 104.71 75.86 105.52 75.93 106.33L74.78 105.91L67.16 103.22L66.03 102.82L59.05 100.34V100.32L50.97 97.4402C51.31 94.5402 51.88 91.7302 52.65 88.9902C54.41 82.7302 57.28 76.9302 61.02 71.8202C61.83 70.6902 62.7 69.5902 63.63 68.5202C64.84 67.1102 66.14 65.7502 67.48 64.4602C68.29 63.6802 69.13 62.9202 70.01 62.1902C71.52 60.9302 73.1 59.7302 74.75 58.6302C75.56 58.0802 76.38 57.5602 77.24 57.0602C85.38 52.2202 94.9 49.4402 105.05 49.4402C112.75 49.4402 120.09 51.0402 126.74 53.9402C129.56 55.1502 132.24 56.6102 134.78 58.2802C135.78 58.9302 136.75 59.6102 137.69 60.3002C139.18 61.4202 140.62 62.6102 141.98 63.8902C142.97 64.7802 143.91 65.7002 144.8 66.6702C146.03 67.9602 147.18 69.3402 148.28 70.7602C153.62 77.7202 157.31 85.9902 158.79 95.0102L163.53 93.1302L167.3 91.6202C165.13 81.4402 160.55 72.1602 154.19 64.4102C153.07 63.0202 151.88 61.6902 150.63 60.4102C149.71 59.4502 148.75 58.5302 147.78 57.6602C146.4 56.4002 144.98 55.2002 143.49 54.0702C142.55 53.3602 141.6 52.6602 140.63 52.0002C138.14 50.3002 135.52 48.7802 132.8 47.4402C124.29 43.2802 114.72 40.9302 104.6 40.9302C92.32 40.9302 80.81 44.3902 71.05 50.4002C70.21 50.9202 69.38 51.4502 68.57 52.0002C66.94 53.1202 65.35 54.3002 63.83 55.5402C62.96 56.2702 62.1 57.0102 61.27 57.7902C59.89 59.0402 58.58 60.3602 57.32 61.7202C56.38 62.7602 55.46 63.8102 54.6 64.9102C49.74 70.9502 45.96 77.8802 43.53 85.4302C42.64 88.2102 41.93 91.0802 41.43 94.0202L39.76 93.4402L34.5 91.5502L34.01 91.3702C34.58 88.3902 35.34 85.4802 36.28 82.6502C39.11 73.9702 43.55 66.0402 49.25 59.1602C50.14 58.0902 51.05 57.0602 52.02 56.0402C53.27 54.6802 54.61 53.3502 55.99 52.0902C56.82 51.3302 57.66 50.5802 58.53 49.8602C60.05 48.6002 61.62 47.3802 63.24 46.2502C64.03 45.6802 64.84 45.1302 65.65 44.6202C76.87 37.3702 90.24 33.1602 104.61 33.1602C116.8 33.1602 128.26 36.1902 138.31 41.5402C140.98 42.9302 143.54 44.5202 145.98 46.2502C146.95 46.9302 147.89 47.6302 148.83 48.3502C150.3 49.5002 151.73 50.7102 153.1 51.9602C154.07 52.8702 155.03 53.7702 155.93 54.7102C157.19 55.9902 158.39 57.3202 159.56 58.6802C166.76 67.2302 172.02 77.4702 174.63 88.7202C175.26 91.3902 175.73 94.1302 176.02 96.9102L176 96.8802Z" fill="white"/>
</svg>
